<?xml version="1.0" encoding="utf-8"?>
<!-- Generator: Adobe Illustrator 25.0.0, SVG Export Plug-In . SVG Version: 6.00 Build 0)  -->
<svg version="1.1" id="Слой_1" xmlns="http://www.w3.org/2000/svg" xmlns:xlink="http://www.w3.org/1999/xlink" x="0px" y="0px"
	 viewBox="0 0 254.76 85.59" style="enable-background:new 0 0 254.76 85.59;" xml:space="preserve">
<style type="text/css">
	.st0{fill:#108637;}
</style>
<g>
	<g>
		<path class="st0" d="M130.08,41.69l-3.26-3.98c-1.73,0.55-3.55,0.82-5.44,0.82c-2.31,0-4.44-0.38-6.39-1.13
			c-1.95-0.75-3.64-1.8-5.05-3.14c-1.42-1.34-2.51-2.94-3.3-4.78c-0.78-1.85-1.17-3.87-1.17-6.06c0-2.19,0.39-4.21,1.17-6.06
			c0.78-1.85,1.88-3.44,3.3-4.78c1.42-1.34,3.1-2.39,5.05-3.14c1.95-0.75,4.08-1.13,6.39-1.13c2.31,0,4.43,0.38,6.37,1.13
			c1.94,0.75,3.61,1.79,5.01,3.12c1.4,1.33,2.49,2.92,3.28,4.76c0.78,1.85,1.18,3.88,1.18,6.1c0,2.27-0.41,4.35-1.22,6.22
			c-0.81,1.88-1.96,3.48-3.44,4.83l5.98,7.23H130.08z M113.76,23.41c0,1.12,0.19,2.16,0.58,3.1s0.91,1.76,1.59,2.44
			c0.67,0.68,1.48,1.22,2.41,1.6c0.93,0.38,1.95,0.58,3.05,0.58s2.11-0.19,3.03-0.58c0.92-0.38,1.72-0.92,2.39-1.6
			c0.67-0.68,1.2-1.5,1.57-2.44c0.37-0.94,0.56-1.98,0.56-3.1c0-1.12-0.19-2.16-0.56-3.1c-0.37-0.94-0.89-1.76-1.57-2.44
			c-0.67-0.68-1.47-1.22-2.39-1.6c-0.92-0.38-1.93-0.58-3.03-0.58s-2.12,0.19-3.05,0.58c-0.93,0.38-1.74,0.92-2.41,1.6
			c-0.67,0.68-1.2,1.5-1.59,2.44C113.95,21.26,113.76,22.29,113.76,23.41z"/>
		<path class="st0" d="M154.16,38.52c-1.84,0-3.54-0.29-5.09-0.86c-1.55-0.58-2.89-1.38-4-2.42c-1.11-1.04-1.98-2.29-2.6-3.76
			c-0.62-1.46-0.93-3.07-0.93-4.83V9.04h8.12v17.49c0,1.4,0.41,2.51,1.24,3.35c0.83,0.84,1.91,1.25,3.26,1.25
			c1.32,0,2.39-0.42,3.22-1.25c0.83-0.83,1.24-1.95,1.24-3.35V9.04h8.12v17.62c0,1.75-0.31,3.36-0.93,4.83
			c-0.62,1.46-1.48,2.72-2.6,3.76c-1.11,1.04-2.44,1.85-3.98,2.42C157.69,38.24,156,38.52,154.16,38.52z"/>
		<path class="st0" d="M190.89,30.52v7.27h-18.3V9.04h8.04v21.48H190.89z"/>
		<path class="st0" d="M212.54,33.1h-10.22l-1.61,4.68h-8.49l11.34-28.75h7.75l11.58,28.75h-8.74L212.54,33.1z M207.42,17.99
			l-3.17,8.91h6.35L207.42,17.99z"/>
		<path class="st0" d="M238.01,26.53v11.25h-8.08V26.53L219.92,9.04h8.82l5.28,10.39l5.28-10.39h8.82L238.01,26.53z"/>
		<path class="st0" d="M123.2,75.85l-8.25-12.69v12.69H107V47.1h7.96v12.12l7.63-12.12h9.19l-9.24,13.92l10.1,14.83H123.2z"/>
		<path class="st0" d="M146.24,67.06h-2.84v8.79h-7.96V47.1h12.49c1.57,0,3,0.25,4.31,0.74c1.3,0.49,2.43,1.19,3.38,2.09
			s1.69,1.98,2.23,3.22c0.54,1.25,0.8,2.62,0.8,4.13c0,1.78-0.41,3.36-1.22,4.74c-0.81,1.38-1.93,2.5-3.36,3.35l5.73,10.47h-8.86
			L146.24,67.06z M143.4,60.37h3.63c1.13,0,1.99-0.29,2.6-0.88c0.6-0.59,0.91-1.33,0.91-2.24s-0.3-1.65-0.91-2.24
			c-0.6-0.59-1.47-0.88-2.6-0.88h-3.63V60.37z"/>
		<path class="st0" d="M182.65,68.99v6.86h-18.8V47.1h18.47v6.86h-10.55v4.27h9.48v6.45h-9.48v4.31H182.65z"/>
		<path class="st0" d="M199.42,47.1c2.2,0,4.21,0.36,6.02,1.07c1.81,0.71,3.38,1.7,4.7,2.96c1.32,1.26,2.34,2.77,3.07,4.52
			c0.73,1.75,1.09,3.68,1.09,5.79s-0.36,4.04-1.09,5.81c-0.73,1.77-1.75,3.29-3.07,4.56s-2.89,2.27-4.72,2.98
			c-1.83,0.71-3.83,1.07-6,1.07h-11.67V47.1H199.42z M199.05,68.58c1.07,0,2.05-0.17,2.93-0.51c0.88-0.34,1.63-0.83,2.25-1.46
			c0.62-0.63,1.1-1.38,1.44-2.26c0.34-0.87,0.52-1.85,0.52-2.92c0-2.14-0.65-3.85-1.96-5.13c-1.31-1.29-3.03-1.93-5.17-1.93h-3.34
			v14.21H199.05z"/>
		<path class="st0" d="M219.01,47.1h8.04v28.75h-8.04V47.1z"/>
		<path class="st0" d="M254.83,54.25h-7.88v21.6H239v-21.6h-7.83V47.1h23.67V54.25z"/>
	</g>
	<path class="st0" d="M87.44,44.06c0.04-0.9,0.06-1.81,0.03-2.73C87.1,28.54,81.62,17.06,71.9,9.57
		c-7.55-5.83-17.57-9.11-28.13-9.11c0,0,0,0,0,0h0c-12.51,0-24.32,4.39-32.29,12.26C4.08,20.04,0.07,30.46,0.07,41.33
		c0,0.25,0.02,0.5,0.02,0.75c0,0.26-0.02,0.52-0.02,0.78c0,23.42,19.57,42.4,43.7,42.4c6.16,0,12.03-1.24,17.35-3.47l2.7,4.26h15.82
		l-7.28-11.12C81.33,67.4,87.09,56.39,87.44,44.06z M39.17,37.91V11.7c0.24-0.04,0.49-0.07,0.73-0.1c0.37-0.05,0.74-0.1,1.12-0.13
		c0.25-0.02,0.5-0.05,0.75-0.06c0.66-0.05,1.33-0.08,2-0.08c0.48,0,0.96,0.01,1.43,0.04c0.13,0.01,0.27,0.02,0.4,0.03
		c0.35,0.02,0.7,0.05,1.04,0.08c0.12,0.01,0.24,0.03,0.36,0.04c0.37,0.04,0.74,0.09,1.11,0.14c0.07,0.01,0.13,0.02,0.2,0.03
		c2.13,0.34,4.19,0.92,6.15,1.7L39.17,37.93V37.91z M25.37,66.87c-3.69-2.7-6.71-6.24-8.75-10.45c-1.84-4.03-2.89-8.53-2.93-13.29
		c0-0.06,0-0.11,0-0.17c0.03-3.58,0.57-6.99,1.57-10.16c0.06-0.18,0.12-0.37,0.18-0.55c0.07-0.21,0.15-0.43,0.22-0.64
		c1.6-4.38,4.09-8.29,7.26-11.48c0.31-0.3,0.62-0.6,0.94-0.9c0.02-0.01,0.03-0.03,0.05-0.05c0.47-0.43,0.97-0.83,1.47-1.23V66.87z
		 M43.78,72.73c-1.57,0-3.11-0.11-4.61-0.32V47.15h0.02l15.08,23.82C51.02,72.11,47.48,72.73,43.78,72.73z M65.42,63.92l-14.1-21.67
		l14.16-21.23c5.04,5.5,8.19,12.9,8.37,21.08c0,0.29,0.02,0.57,0.01,0.86C73.76,51.43,70.57,58.69,65.42,63.92z"/>
</g>
</svg>
